<mxfile host="app.diagrams.net" modified="2023-04-13T00:51:40.914Z" agent="Mozilla/5.0 (Macintosh; Intel Mac OS X 10_15_7) AppleWebKit/537.36 (KHTML, like Gecko) Chrome/112.0.0.0 Safari/537.36" etag="Lv-T3Y7CYxREGhucVqO7" version="21.1.7" type="device">
  <diagram id="C5RBs43oDa-KdzZeNtuy" name="Page-1">
    <mxGraphModel dx="984" dy="667" grid="1" gridSize="10" guides="1" tooltips="1" connect="1" arrows="1" fold="1" page="1" pageScale="1" pageWidth="827" pageHeight="1169" math="0" shadow="0">
      <root>
        <mxCell id="WIyWlLk6GJQsqaUBKTNV-0" />
        <mxCell id="WIyWlLk6GJQsqaUBKTNV-1" parent="WIyWlLk6GJQsqaUBKTNV-0" />
        <mxCell id="7pUc_L0GtBTxHSkgT-HD-0" value="MinHeapNode" style="swimlane;fontStyle=3;align=center;verticalAlign=middle;childLayout=stackLayout;horizontal=1;startSize=40;horizontalStack=0;resizeParent=1;resizeLast=0;collapsible=1;marginBottom=0;rounded=0;shadow=0;strokeWidth=1;spacing=4;fontSize=14;labelBorderColor=none;labelBackgroundColor=none;" parent="WIyWlLk6GJQsqaUBKTNV-1" vertex="1">
          <mxGeometry x="120" y="80" width="240" height="120" as="geometry">
            <mxRectangle x="230" y="140" width="160" height="26" as="alternateBounds" />
          </mxGeometry>
        </mxCell>
        <mxCell id="7pUc_L0GtBTxHSkgT-HD-1" value="rideNumber : int &#xa;rideCost : int&#xa;tripDuration : int&#xa;rbt_node : RBNode" style="text;align=left;verticalAlign=middle;spacingLeft=4;spacingRight=4;overflow=hidden;rotatable=0;points=[[0,0.5],[1,0.5]];portConstraint=eastwest;spacing=4;fontSize=14;labelBorderColor=none;fontStyle=1;labelBackgroundColor=none;" parent="7pUc_L0GtBTxHSkgT-HD-0" vertex="1">
          <mxGeometry y="40" width="240" height="80" as="geometry" />
        </mxCell>
        <mxCell id="7pUc_L0GtBTxHSkgT-HD-4" value="MinHeap" style="swimlane;fontStyle=1;align=center;verticalAlign=middle;childLayout=stackLayout;horizontal=1;startSize=40;horizontalStack=0;resizeParent=1;resizeLast=0;collapsible=1;marginBottom=0;rounded=0;shadow=0;strokeWidth=1;spacing=4;fontSize=14;labelBorderColor=none;labelBackgroundColor=none;" parent="WIyWlLk6GJQsqaUBKTNV-1" vertex="1">
          <mxGeometry x="80" y="230" width="320" height="330" as="geometry">
            <mxRectangle x="130" y="380" width="160" height="26" as="alternateBounds" />
          </mxGeometry>
        </mxCell>
        <mxCell id="7pUc_L0GtBTxHSkgT-HD-5" value="heap : list&#xa;node_map : dict" style="text;align=left;verticalAlign=middle;spacingLeft=4;spacingRight=4;overflow=hidden;rotatable=0;points=[[0,0.5],[1,0.5]];portConstraint=eastwest;spacing=4;fontSize=14;labelBorderColor=none;fontStyle=1;labelBackgroundColor=none;" parent="7pUc_L0GtBTxHSkgT-HD-4" vertex="1">
          <mxGeometry y="40" width="320" height="50" as="geometry" />
        </mxCell>
        <mxCell id="7pUc_L0GtBTxHSkgT-HD-6" value="" style="line;html=1;strokeWidth=1;align=left;verticalAlign=middle;spacingTop=-1;spacingLeft=3;spacingRight=3;rotatable=0;labelPosition=right;points=[];portConstraint=eastwest;spacing=4;fontSize=14;labelBorderColor=none;fontStyle=1;labelBackgroundColor=none;" parent="7pUc_L0GtBTxHSkgT-HD-4" vertex="1">
          <mxGeometry y="90" width="320" height="22" as="geometry" />
        </mxCell>
        <mxCell id="7pUc_L0GtBTxHSkgT-HD-7" value="parent ( int )&#xa;left ( int )&#xa;right ( int )&#xa;insert ( MinHeapNode )&#xa;heapify ( int )&#xa;extract_min ( )&#xa;delete_node ( MinHeapNode )&#xa;is_less_than ( int, int )&#xa;swap_nodes ( int, int )&#xa;bubble_up ( int )&#xa;print_heap ( )&#xa;update_heap_node ( MinHeapNode, int, int )" style="text;align=left;verticalAlign=middle;spacingLeft=4;spacingRight=4;overflow=hidden;rotatable=0;points=[[0,0.5],[1,0.5]];portConstraint=eastwest;fontStyle=1;spacing=4;fontSize=14;labelBorderColor=none;labelBackgroundColor=none;" parent="7pUc_L0GtBTxHSkgT-HD-4" vertex="1">
          <mxGeometry y="112" width="320" height="218" as="geometry" />
        </mxCell>
        <mxCell id="7pUc_L0GtBTxHSkgT-HD-8" value="RBTree" style="swimlane;fontStyle=1;align=center;verticalAlign=middle;childLayout=stackLayout;horizontal=1;startSize=40;horizontalStack=0;resizeParent=1;resizeLast=0;collapsible=1;marginBottom=0;rounded=0;shadow=0;strokeWidth=1;spacing=4;fontSize=14;labelBorderColor=none;labelBackgroundColor=none;" parent="WIyWlLk6GJQsqaUBKTNV-1" vertex="1">
          <mxGeometry x="440" y="280" width="320" height="280" as="geometry">
            <mxRectangle x="340" y="380" width="170" height="26" as="alternateBounds" />
          </mxGeometry>
        </mxCell>
        <mxCell id="7pUc_L0GtBTxHSkgT-HD-9" value="external_node: RedBlackTreeNode&#xa;root: RedBlackTreeNode" style="text;align=left;verticalAlign=middle;spacingLeft=4;spacingRight=4;overflow=hidden;rotatable=0;points=[[0,0.5],[1,0.5]];portConstraint=eastwest;spacing=4;fontSize=14;labelBorderColor=none;fontStyle=1;labelBackgroundColor=none;" parent="7pUc_L0GtBTxHSkgT-HD-8" vertex="1">
          <mxGeometry y="40" width="320" height="54" as="geometry" />
        </mxCell>
        <mxCell id="7pUc_L0GtBTxHSkgT-HD-10" value="" style="line;html=1;strokeWidth=1;align=left;verticalAlign=middle;spacingTop=-1;spacingLeft=3;spacingRight=3;rotatable=0;labelPosition=right;points=[];portConstraint=eastwest;spacing=4;fontSize=14;labelBorderColor=none;fontStyle=1;labelBackgroundColor=none;" parent="7pUc_L0GtBTxHSkgT-HD-8" vertex="1">
          <mxGeometry y="94" width="320" height="8" as="geometry" />
        </mxCell>
        <mxCell id="7pUc_L0GtBTxHSkgT-HD-11" value="insert ( RBNode )&#xa;LR (  RBNode )&#xa;RR ( RBNode )&#xa;minimum ( root : RBNode )&#xa;fixInsert ( RBNode )&#xa;fixDelete ( RBNode )&#xa;rb_transplant ( RBNode, RBNode )&#xa;delete ( int )&#xa;search_node ( root : RBNode, int )&#xa;search ( int )" style="text;align=left;verticalAlign=middle;spacingLeft=4;spacingRight=4;overflow=hidden;rotatable=0;points=[[0,0.5],[1,0.5]];portConstraint=eastwest;fontStyle=1;spacing=4;fontSize=14;labelBorderColor=none;labelBackgroundColor=none;" parent="7pUc_L0GtBTxHSkgT-HD-8" vertex="1">
          <mxGeometry y="102" width="320" height="178" as="geometry" />
        </mxCell>
        <mxCell id="7pUc_L0GtBTxHSkgT-HD-12" value="RBNode" style="swimlane;fontStyle=1;align=center;verticalAlign=middle;childLayout=stackLayout;horizontal=1;startSize=40;horizontalStack=0;resizeParent=1;resizeLast=0;collapsible=1;marginBottom=0;rounded=0;shadow=0;strokeWidth=1;spacing=4;fontSize=14;labelBorderColor=none;labelBackgroundColor=none;" parent="WIyWlLk6GJQsqaUBKTNV-1" vertex="1">
          <mxGeometry x="480" y="40" width="240" height="200" as="geometry">
            <mxRectangle x="550" y="140" width="160" height="26" as="alternateBounds" />
          </mxGeometry>
        </mxCell>
        <mxCell id="7pUc_L0GtBTxHSkgT-HD-13" value="rideNumber : int&lt;br&gt;rideCost : int&lt;br&gt;tripDuration : int&lt;br&gt;left : RBNode&lt;br&gt;right : RBNode&lt;br&gt;parent : RBNode&lt;br&gt;color : int&lt;br&gt;min_heap_node : MinHeapNode" style="text;align=left;verticalAlign=middle;spacingLeft=4;spacingRight=4;overflow=hidden;rotatable=0;points=[[0,0.5],[1,0.5]];portConstraint=eastwest;rounded=0;shadow=0;html=1;spacingTop=1;spacingBottom=2;spacing=4;whiteSpace=wrap;fontSize=14;labelBorderColor=none;fontStyle=1;labelBackgroundColor=none;" parent="7pUc_L0GtBTxHSkgT-HD-12" vertex="1">
          <mxGeometry y="40" width="240" height="160" as="geometry" />
        </mxCell>
        <mxCell id="7pUc_L0GtBTxHSkgT-HD-16" value="GatorTaxi" style="swimlane;fontStyle=1;align=center;verticalAlign=middle;childLayout=stackLayout;horizontal=1;startSize=40;horizontalStack=0;resizeParent=1;resizeLast=0;collapsible=1;marginBottom=0;rounded=0;shadow=0;strokeWidth=1;spacing=4;fontSize=14;labelBorderColor=none;labelBackgroundColor=none;" parent="WIyWlLk6GJQsqaUBKTNV-1" vertex="1">
          <mxGeometry x="280" y="600" width="280" height="240" as="geometry">
            <mxRectangle x="130" y="380" width="160" height="26" as="alternateBounds" />
          </mxGeometry>
        </mxCell>
        <mxCell id="7pUc_L0GtBTxHSkgT-HD-17" value="rbtree : RBTree&#xa;min_heap : MinHeap" style="text;align=left;verticalAlign=middle;spacingLeft=4;spacingRight=4;overflow=hidden;rotatable=0;points=[[0,0.5],[1,0.5]];portConstraint=eastwest;spacing=4;fontSize=14;labelBorderColor=none;fontStyle=1;labelBackgroundColor=none;" parent="7pUc_L0GtBTxHSkgT-HD-16" vertex="1">
          <mxGeometry y="40" width="280" height="44" as="geometry" />
        </mxCell>
        <mxCell id="7pUc_L0GtBTxHSkgT-HD-18" value="" style="line;html=1;strokeWidth=1;align=left;verticalAlign=middle;spacingTop=-1;spacingLeft=3;spacingRight=3;rotatable=0;labelPosition=right;points=[];portConstraint=eastwest;spacing=4;fontSize=14;labelBorderColor=none;fontStyle=1;labelBackgroundColor=none;" parent="7pUc_L0GtBTxHSkgT-HD-16" vertex="1">
          <mxGeometry y="84" width="280" height="8" as="geometry" />
        </mxCell>
        <mxCell id="7pUc_L0GtBTxHSkgT-HD-19" value="&lt;span style=&quot;background-color: initial;&quot;&gt;&amp;nbsp;insert_ride ( int, int, int )&lt;/span&gt;&lt;br&gt;&lt;div&gt;&amp;nbsp;print_ride ( int )&lt;/div&gt;&lt;div&gt;&amp;nbsp;print_range ( RBNode, int, int, list )&lt;/div&gt;&lt;div&gt;&amp;nbsp;print_rides ( int, int )&lt;/div&gt;&lt;div&gt;&amp;nbsp;get_next_ride ( )&lt;/div&gt;&lt;div&gt;&amp;nbsp;cancel_ride ( int )&lt;/div&gt;&lt;div&gt;&amp;nbsp;update_trip ( int, int )&lt;/div&gt;&lt;div&gt;&lt;/div&gt;" style="text;html=1;align=left;verticalAlign=middle;resizable=0;points=[];autosize=1;strokeColor=none;fillColor=none;fontSize=14;fontColor=default;spacing=4;labelBorderColor=none;fontStyle=1;labelBackgroundColor=none;" parent="7pUc_L0GtBTxHSkgT-HD-16" vertex="1">
          <mxGeometry y="92" width="280" height="140" as="geometry" />
        </mxCell>
        <mxCell id="7pUc_L0GtBTxHSkgT-HD-35" style="rounded=0;orthogonalLoop=1;jettySize=auto;html=1;spacing=4;fontSize=14;labelBorderColor=none;fontStyle=1;labelBackgroundColor=none;verticalAlign=middle;entryX=0.488;entryY=0.988;entryDx=0;entryDy=0;entryPerimeter=0;" parent="WIyWlLk6GJQsqaUBKTNV-1" source="7pUc_L0GtBTxHSkgT-HD-4" target="7pUc_L0GtBTxHSkgT-HD-1" edge="1">
          <mxGeometry relative="1" as="geometry">
            <mxPoint x="400" y="320" as="sourcePoint" />
            <mxPoint x="480" y="320" as="targetPoint" />
          </mxGeometry>
        </mxCell>
        <mxCell id="MRODoxujueKmkuAbDiO0-0" style="rounded=0;orthogonalLoop=1;jettySize=auto;html=1;spacing=4;fontSize=14;labelBorderColor=none;fontStyle=1;labelBackgroundColor=none;verticalAlign=middle;exitX=0.5;exitY=0;exitDx=0;exitDy=0;" edge="1" parent="WIyWlLk6GJQsqaUBKTNV-1" source="7pUc_L0GtBTxHSkgT-HD-8">
          <mxGeometry relative="1" as="geometry">
            <mxPoint x="248" y="240" as="sourcePoint" />
            <mxPoint x="600" y="240" as="targetPoint" />
          </mxGeometry>
        </mxCell>
        <mxCell id="MRODoxujueKmkuAbDiO0-1" style="rounded=0;orthogonalLoop=1;jettySize=auto;html=1;spacing=4;fontSize=14;labelBorderColor=none;fontStyle=1;labelBackgroundColor=none;verticalAlign=middle;" edge="1" parent="WIyWlLk6GJQsqaUBKTNV-1">
          <mxGeometry relative="1" as="geometry">
            <mxPoint x="320" y="600" as="sourcePoint" />
            <mxPoint x="320" y="560" as="targetPoint" />
          </mxGeometry>
        </mxCell>
        <mxCell id="MRODoxujueKmkuAbDiO0-2" style="rounded=0;orthogonalLoop=1;jettySize=auto;html=1;spacing=4;fontSize=14;labelBorderColor=none;fontStyle=1;labelBackgroundColor=none;verticalAlign=middle;" edge="1" parent="WIyWlLk6GJQsqaUBKTNV-1">
          <mxGeometry relative="1" as="geometry">
            <mxPoint x="520" y="600" as="sourcePoint" />
            <mxPoint x="520" y="560" as="targetPoint" />
          </mxGeometry>
        </mxCell>
      </root>
    </mxGraphModel>
  </diagram>
</mxfile>
